/* XPM */
static char *pm[] = {
/* width height ncolors chars_per_pixel */
"21 30 3 1",
/* colors */
"` c None",
"b c white s foreground",
"a g black c red s background",
/* pixels */
"```````bbb``abb``````",
"``````bbaabbbaab`````",
"`````baaaaaabbaabb```",
"````baabbbbaabbaaab``",
"```baab````bbb`bbaab`",
"``baab```````````babb",
"``bab````````````baab",
"`baab````````````baab",
"`baab````````````baab",
"`baab````````````baab",
"``bab````````````bab`",
"``baab``````````baab`",
"```baab```````bbaab``",
"````baabbbbbbbaaab```",
"`````baaaaaaaaabb````",
"`bbbbbbbbaaaabb``````",
"`baaaaabbaabbb```````",
"`bbbbbaaaaaaaabbbbb``",
"``````bbbaabbaaaaab``",
"````````baab`bbbbbb``",
"````````baabbbaab````",
"````````baabaaab`````",
"````````bbaaabb``````",
"````````bbaabb```````",
"`````````baaabb``````",
"`````````baaaaab`````",
"`````````baabbaab````",
"`````````baab`bbab```",
"`````````baab```bb```",
"`````````bbbb````````"
};
